<svg width="221" height="63" viewBox="0 0 221 63" fill="none" xmlns="http://www.w3.org/2000/svg">
<rect width="62.2595" height="62.2595" rx="5.15394" fill="#4786FF"/>
<path d="M25.7822 16.0847C34.1945 17.9866 38.7196 23.7349 38.6873 32.2968C38.6695 36.9945 38.6841 41.6924 38.6841 46.4722C36.6639 46.4722 34.7582 46.4722 32.6514 46.4722C32.6514 45.3245 32.6514 44.1859 32.6514 43.0472C32.6511 39.0478 32.6922 35.0478 32.6395 31.0491C32.5795 26.5004 29.0828 22.575 24.7304 22.0629C19.8694 21.4909 15.6207 24.2734 14.418 28.8166C13.2134 33.3663 15.4549 37.9477 19.7892 39.7719C20.2375 39.9606 20.7138 40.0831 21.3369 40.2891C21.3369 37.2173 21.3369 34.3104 21.3369 31.3158C23.1525 31.3158 24.8452 31.3158 26.6143 31.3158C26.6143 36.3349 26.6143 41.3333 26.6142 46.3318C17.4905 47.8278 10.2819 42.3811 8.44315 34.6059C6.5237 26.4895 11.7578 18.1023 19.9225 16.3594C21.7681 15.9654 23.7366 16.1472 25.7822 16.0847Z" fill="white"/>
<path d="M53.9993 43.9371C53.9993 44.8352 53.9993 45.5881 53.9993 46.4509C51.9957 46.4509 50.0579 46.4509 47.9507 46.4509C47.9507 45.4179 47.9484 44.4214 47.9511 43.4248C47.9627 39.2748 47.9823 35.1248 47.987 30.9748C47.9942 24.5859 43.689 18.736 37.4666 16.6643C37.0951 16.5406 36.7231 16.4184 36.2401 16.2588C43.6537 14.4517 51.8473 19.8969 53.6137 27.733C53.8782 28.9059 53.981 30.1361 53.9931 31.3414C54.0348 35.4912 54.0031 39.6417 53.9993 43.9371Z" fill="white"/>
<path d="M94.5686 17.258C94.097 16.3892 93.4144 15.7314 92.5208 15.2846C91.6521 14.813 90.622 14.5772 89.4305 14.5772C87.3703 14.5772 85.7196 15.2598 84.4785 16.625C83.2374 17.9654 82.6169 19.765 82.6169 22.0238C82.6169 24.4315 83.2622 26.318 84.553 27.6832C85.8686 29.0236 87.6681 29.6938 89.9518 29.6938C91.5155 29.6938 92.8311 29.2966 93.8984 28.5023C94.9906 27.708 95.7849 26.5662 96.2813 25.0769H88.2018V20.3855H102.052V26.3056C101.581 27.8942 100.774 29.3711 99.6323 30.7363C98.5153 32.1015 97.0881 33.2061 95.3505 34.05C93.613 34.894 91.6521 35.3159 89.4677 35.3159C86.8862 35.3159 84.5778 34.7574 82.5424 33.6404C80.5318 32.4986 78.9556 30.9224 77.8138 28.9119C76.6968 26.9013 76.1384 24.6053 76.1384 22.0238C76.1384 19.4423 76.6968 17.1463 77.8138 15.1357C78.9556 13.1003 80.5318 11.5241 82.5424 10.4071C84.553 9.26531 86.849 8.6944 89.4305 8.6944C92.5581 8.6944 95.1892 9.45147 97.3239 10.9656C99.4834 12.4797 100.911 14.5772 101.606 17.258H94.5686ZM108.781 12.1943C107.664 12.1943 106.746 11.8716 106.026 11.2262C105.331 10.556 104.983 9.73693 104.983 8.76887C104.983 7.77599 105.331 6.95687 106.026 6.3115C106.746 5.64131 107.664 5.30621 108.781 5.30621C109.873 5.30621 110.767 5.64131 111.462 6.3115C112.182 6.95687 112.542 7.77599 112.542 8.76887C112.542 9.73693 112.182 10.556 111.462 11.2262C110.767 11.8716 109.873 12.1943 108.781 12.1943ZM111.946 14.3538V35.1298H105.579V14.3538H111.946ZM122.927 17.8165C123.671 16.6747 124.602 15.7811 125.719 15.1357C126.836 14.4655 128.077 14.1304 129.442 14.1304V20.8696H127.693C126.104 20.8696 124.912 21.2171 124.118 21.9121C123.324 22.5823 122.927 23.7737 122.927 25.4864V35.1298H116.56V14.3538H122.927V17.8165ZM158.996 14.1304C161.577 14.1304 163.625 14.9123 165.139 16.4761C166.678 18.0399 167.447 20.2118 167.447 22.9918V35.1298H161.118V23.8482C161.118 22.5078 160.758 21.4777 160.038 20.7579C159.343 20.0132 158.375 19.6409 157.134 19.6409C155.893 19.6409 154.912 20.0132 154.192 20.7579C153.497 21.4777 153.15 22.5078 153.15 23.8482V35.1298H146.82V23.8482C146.82 22.5078 146.46 21.4777 145.741 20.7579C145.046 20.0132 144.078 19.6409 142.836 19.6409C141.595 19.6409 140.615 20.0132 139.895 20.7579C139.2 21.4777 138.853 22.5078 138.853 23.8482V35.1298H132.486V14.3538H138.853V16.9601C139.498 16.0913 140.342 15.4087 141.384 14.9123C142.427 14.391 143.606 14.1304 144.921 14.1304C146.485 14.1304 147.875 14.4655 149.092 15.1357C150.333 15.8059 151.301 16.7615 151.996 18.0026C152.716 16.8608 153.696 15.93 154.937 15.2102C156.178 14.4903 157.531 14.1304 158.996 14.1304ZM170.634 24.7046C170.634 22.5699 171.031 20.6958 171.826 19.0824C172.645 17.469 173.749 16.2279 175.139 15.3591C176.529 14.4903 178.081 14.0559 179.794 14.0559C181.258 14.0559 182.536 14.3538 183.629 14.9495C184.746 15.5453 185.602 16.3271 186.198 17.2952V14.3538H192.564V35.1298H186.198V32.1884C185.577 33.1564 184.708 33.9383 183.591 34.534C182.499 35.1298 181.221 35.4276 179.756 35.4276C178.068 35.4276 176.529 34.9932 175.139 34.1245C173.749 33.2309 172.645 31.9774 171.826 30.3639C171.031 28.7257 170.634 26.8392 170.634 24.7046ZM186.198 24.7418C186.198 23.1532 185.751 21.8997 184.857 20.9813C183.988 20.0628 182.921 19.6036 181.655 19.6036C180.389 19.6036 179.31 20.0628 178.416 20.9813C177.547 21.8748 177.113 23.1159 177.113 24.7046C177.113 26.2932 177.547 27.5591 178.416 28.5023C179.31 29.4207 180.389 29.8799 181.655 29.8799C182.921 29.8799 183.988 29.4207 184.857 28.5023C185.751 27.5839 186.198 26.3304 186.198 24.7418ZM209.83 14.1304C212.262 14.1304 214.198 14.9247 215.638 16.5133C217.103 18.0771 217.835 20.2366 217.835 22.9918V35.1298H211.505V23.8482C211.505 22.4582 211.145 21.3784 210.425 20.6089C209.706 19.8395 208.738 19.4547 207.521 19.4547C206.305 19.4547 205.337 19.8395 204.617 20.6089C203.897 21.3784 203.537 22.4582 203.537 23.8482V35.1298H197.171V14.3538H203.537V17.109C204.183 16.1906 205.052 15.4708 206.144 14.9495C207.236 14.4034 208.465 14.1304 209.83 14.1304Z" fill="#111111"/>
<path d="M86.5267 48.2811V49.5517H84.4352V56.1298H82.861V49.5517H80.7695V48.2811H86.5267ZM93.7473 49.5517V51.5195H96.3898V52.7677H93.7473V54.8479H96.7271V56.1298H92.1731V48.2698H96.7271V49.5517H93.7473ZM102.273 52.1942C102.273 51.4221 102.446 50.7324 102.79 50.1252C103.143 49.5105 103.619 49.0345 104.219 48.6971C104.826 48.3523 105.504 48.1799 106.254 48.1799C107.131 48.1799 107.899 48.4048 108.559 48.8546C109.219 49.3043 109.68 49.9265 109.942 50.7212H108.132C107.952 50.3463 107.697 50.0652 107.367 49.8778C107.045 49.6904 106.67 49.5967 106.243 49.5967C105.785 49.5967 105.377 49.7054 105.017 49.9228C104.665 50.1327 104.387 50.4325 104.185 50.8224C103.99 51.2122 103.892 51.6694 103.892 52.1942C103.892 52.7114 103.99 53.1687 104.185 53.566C104.387 53.9558 104.665 54.2594 105.017 54.4768C105.377 54.6867 105.785 54.7917 106.243 54.7917C106.67 54.7917 107.045 54.698 107.367 54.5106C107.697 54.3156 107.952 54.0308 108.132 53.656H109.942C109.68 54.4581 109.219 55.084 108.559 55.5338C107.907 55.9761 107.138 56.1972 106.254 56.1972C105.504 56.1972 104.826 56.0286 104.219 55.6912C103.619 55.3464 103.143 54.8704 102.79 54.2632C102.446 53.656 102.273 52.9663 102.273 52.1942ZM122.295 48.2811V56.1298H120.721V52.7901H117.359V56.1298H115.784V48.2811H117.359V51.5083H120.721V48.2811H122.295ZM135.055 56.1298H133.481L129.916 50.7436V56.1298H128.342V48.2698H129.916L133.481 53.6672V48.2698H135.055V56.1298ZM144.752 56.2085C144.017 56.2085 143.343 56.0361 142.728 55.6912C142.113 55.3464 141.626 54.8704 141.266 54.2632C140.906 53.6485 140.726 52.9551 140.726 52.1829C140.726 51.4183 140.906 50.7324 141.266 50.1252C141.626 49.5105 142.113 49.0307 142.728 48.6859C143.343 48.3411 144.017 48.1686 144.752 48.1686C145.494 48.1686 146.169 48.3411 146.776 48.6859C147.391 49.0307 147.874 49.5105 148.226 50.1252C148.586 50.7324 148.766 51.4183 148.766 52.1829C148.766 52.9551 148.586 53.6485 148.226 54.2632C147.874 54.8704 147.391 55.3464 146.776 55.6912C146.161 56.0361 145.487 56.2085 144.752 56.2085ZM144.752 54.8029C145.224 54.8029 145.64 54.698 146 54.4881C146.36 54.2707 146.641 53.9633 146.843 53.566C147.046 53.1687 147.147 52.7077 147.147 52.1829C147.147 51.6582 147.046 51.2009 146.843 50.8111C146.641 50.4138 146.36 50.1102 146 49.9003C145.64 49.6904 145.224 49.5855 144.752 49.5855C144.28 49.5855 143.86 49.6904 143.493 49.9003C143.133 50.1102 142.852 50.4138 142.649 50.8111C142.447 51.2009 142.346 51.6582 142.346 52.1829C142.346 52.7077 142.447 53.1687 142.649 53.566C142.852 53.9633 143.133 54.2707 143.493 54.4881C143.86 54.698 144.28 54.8029 144.752 54.8029ZM156.009 54.8816H158.596V56.1298H154.435V48.2811H156.009V54.8816ZM167.737 56.2085C167.003 56.2085 166.328 56.0361 165.713 55.6912C165.099 55.3464 164.611 54.8704 164.251 54.2632C163.892 53.6485 163.712 52.9551 163.712 52.1829C163.712 51.4183 163.892 50.7324 164.251 50.1252C164.611 49.5105 165.099 49.0307 165.713 48.6859C166.328 48.3411 167.003 48.1686 167.737 48.1686C168.479 48.1686 169.154 48.3411 169.761 48.6859C170.376 49.0307 170.859 49.5105 171.212 50.1252C171.572 50.7324 171.752 51.4183 171.752 52.1829C171.752 52.9551 171.572 53.6485 171.212 54.2632C170.859 54.8704 170.376 55.3464 169.761 55.6912C169.147 56.0361 168.472 56.2085 167.737 56.2085ZM167.737 54.8029C168.21 54.8029 168.626 54.698 168.985 54.4881C169.345 54.2707 169.626 53.9633 169.829 53.566C170.031 53.1687 170.132 52.7077 170.132 52.1829C170.132 51.6582 170.031 51.2009 169.829 50.8111C169.626 50.4138 169.345 50.1102 168.985 49.9003C168.626 49.6904 168.21 49.5855 167.737 49.5855C167.265 49.5855 166.845 49.6904 166.478 49.9003C166.118 50.1102 165.837 50.4138 165.635 50.8111C165.432 51.2009 165.331 51.6582 165.331 52.1829C165.331 52.7077 165.432 53.1687 165.635 53.566C165.837 53.9633 166.118 54.2707 166.478 54.4881C166.845 54.698 167.265 54.8029 167.737 54.8029ZM182.885 50.6424C182.705 50.3126 182.458 50.0615 182.143 49.8891C181.828 49.7166 181.461 49.6304 181.041 49.6304C180.576 49.6304 180.164 49.7354 179.804 49.9453C179.445 50.1552 179.163 50.455 178.961 50.8448C178.759 51.2347 178.657 51.6844 178.657 52.1942C178.657 52.7189 178.759 53.1762 178.961 53.566C179.171 53.9558 179.46 54.2557 179.827 54.4656C180.194 54.6755 180.621 54.7804 181.109 54.7804C181.708 54.7804 182.199 54.623 182.582 54.3082C182.964 53.9858 183.215 53.5398 183.335 52.9701H180.636V51.7669H184.887V53.1387C184.782 53.686 184.557 54.192 184.212 54.6567C183.867 55.1215 183.421 55.4963 182.874 55.7812C182.334 56.0585 181.727 56.1972 181.053 56.1972C180.295 56.1972 179.609 56.0286 178.995 55.6912C178.388 55.3464 177.908 54.8704 177.555 54.2632C177.211 53.656 177.038 52.9663 177.038 52.1942C177.038 51.4221 177.211 50.7324 177.555 50.1252C177.908 49.5105 178.388 49.0345 178.995 48.6971C179.609 48.3523 180.292 48.1799 181.041 48.1799C181.926 48.1799 182.694 48.3973 183.346 48.8321C183.999 49.2594 184.448 49.8628 184.696 50.6424H182.885ZM192.124 48.2811V56.1298H190.549V48.2811H192.124ZM199.751 49.5517V51.5195H202.393V52.7677H199.751V54.8479H202.731V56.1298H198.177V48.2698H202.731V49.5517H199.751ZM211.369 56.2085C210.822 56.2085 210.327 56.1148 209.885 55.9274C209.45 55.74 209.105 55.4701 208.85 55.1178C208.595 54.7654 208.464 54.3494 208.457 53.8696H210.143C210.166 54.192 210.278 54.4468 210.481 54.6342C210.691 54.8216 210.976 54.9154 211.335 54.9154C211.703 54.9154 211.991 54.8291 212.201 54.6567C212.411 54.4768 212.516 54.2444 212.516 53.9596C212.516 53.7272 212.445 53.536 212.302 53.3861C212.16 53.2362 211.98 53.12 211.763 53.0375C211.553 52.9476 211.26 52.8501 210.886 52.7452C210.376 52.5952 209.96 52.4491 209.637 52.3066C209.323 52.1567 209.049 51.9356 208.817 51.6432C208.592 51.3433 208.479 50.946 208.479 50.4513C208.479 49.9865 208.595 49.5817 208.828 49.2369C209.06 48.892 209.386 48.6297 209.806 48.4498C210.226 48.2624 210.706 48.1686 211.245 48.1686C212.055 48.1686 212.711 48.3673 213.213 48.7646C213.723 49.1544 214.004 49.7016 214.057 50.4063H212.325C212.31 50.1364 212.194 49.9153 211.976 49.7429C211.766 49.563 211.485 49.473 211.133 49.473C210.826 49.473 210.578 49.5517 210.391 49.7091C210.211 49.8666 210.121 50.0952 210.121 50.3951C210.121 50.605 210.188 50.7811 210.323 50.9236C210.466 51.0585 210.638 51.1709 210.841 51.2609C211.051 51.3433 211.343 51.4408 211.718 51.5532C212.227 51.7032 212.643 51.8531 212.966 52.003C213.288 52.153 213.566 52.3778 213.798 52.6777C214.03 52.9775 214.147 53.3711 214.147 53.8584C214.147 54.2782 214.038 54.668 213.82 55.0278C213.603 55.3876 213.284 55.6762 212.865 55.8936C212.445 56.1035 211.946 56.2085 211.369 56.2085Z" fill="#111111"/>
</svg>
